<svg width="75" height="74" viewBox="0 0 75 74" fill="none" xmlns="http://www.w3.org/2000/svg">
<path d="M9.06543 9.00037L66.0654 66.0004" stroke="#D1DCFF" stroke-width="3.5"/>
<path d="M66.0654 9.00037L9.06543 66.0004" stroke="#D1DCFF" stroke-width="3.5"/>
<rect x="0.0654297" y="37.0004" width="52.3264" height="52.3264" transform="rotate(-45 0.0654297 37.0004)" fill="#F5F7FF"/>
<path d="M35.2094 29.2004L27.9374 46.0004H24.0974L16.8494 29.2004H21.0494L26.1614 41.2004L31.3454 29.2004H35.2094ZM42.6121 46.2884C41.2841 46.2884 39.9961 46.1124 38.7481 45.7604C37.5161 45.3924 36.5241 44.9204 35.7721 44.3444L37.0921 41.4164C37.8121 41.9444 38.6681 42.3684 39.6601 42.6884C40.6521 43.0084 41.6441 43.1684 42.6361 43.1684C43.7401 43.1684 44.5561 43.0084 45.0841 42.6884C45.6121 42.3524 45.8761 41.9124 45.8761 41.3684C45.8761 40.9684 45.7161 40.6404 45.3961 40.3844C45.0921 40.1124 44.6921 39.8964 44.1961 39.7364C43.7161 39.5764 43.0601 39.4004 42.2281 39.2084C40.9481 38.9044 39.9001 38.6004 39.0841 38.2964C38.2681 37.9924 37.5641 37.5044 36.9721 36.8324C36.3961 36.1604 36.1081 35.2644 36.1081 34.1444C36.1081 33.1684 36.3721 32.2884 36.9001 31.5044C37.4281 30.7044 38.2201 30.0724 39.2761 29.6084C40.3481 29.1444 41.6521 28.9124 43.1881 28.9124C44.2601 28.9124 45.3081 29.0404 46.3321 29.2964C47.3561 29.5524 48.2521 29.9204 49.0201 30.4004L47.8201 33.3524C46.2681 32.4724 44.7161 32.0324 43.1641 32.0324C42.0761 32.0324 41.2681 32.2084 40.7401 32.5604C40.2281 32.9124 39.9721 33.3764 39.9721 33.9524C39.9721 34.5284 40.2681 34.9604 40.8601 35.2484C41.4681 35.5204 42.3881 35.7924 43.6201 36.0644C44.9001 36.3684 45.9481 36.6724 46.7641 36.9764C47.5801 37.2804 48.2761 37.7604 48.8521 38.4164C49.4441 39.0724 49.7401 39.9604 49.7401 41.0804C49.7401 42.0404 49.4681 42.9204 48.9241 43.7204C48.3961 44.5044 47.5961 45.1284 46.5241 45.5924C45.4521 46.0564 44.1481 46.2884 42.6121 46.2884ZM54.4976 46.1924C53.8416 46.1924 53.2896 45.9684 52.8416 45.5204C52.3936 45.0724 52.1696 44.5124 52.1696 43.8404C52.1696 43.1524 52.3936 42.6004 52.8416 42.1844C53.2896 41.7524 53.8416 41.5364 54.4976 41.5364C55.1536 41.5364 55.7056 41.7524 56.1536 42.1844C56.6016 42.6004 56.8256 43.1524 56.8256 43.8404C56.8256 44.5124 56.6016 45.0724 56.1536 45.5204C55.7056 45.9684 55.1536 46.1924 54.4976 46.1924Z" fill="#D1DCFF"/>
</svg>
