<svg width="28" height="28" viewBox="0 0 28 28" fill="none" xmlns="http://www.w3.org/2000/svg">
<path d="M19.3332 4H7.44434C4.68291 4 2.44434 6.23858 2.44434 9V9V9C2.44434 11.7614 4.68291 14 7.44434 14H20.5554C23.3168 14 25.5553 16.2386 25.5553 19V19C25.5553 21.7614 23.3168 24 20.5553 24H8.66653" stroke="#0327A3"/>
<path d="M3.33333 24H2" stroke="#0327A3" stroke-linecap="round"/>
<path d="M24.667 4H26.0003" stroke="#0327A3" stroke-linecap="round"/>
<path d="M23.8663 6H21.333C20.2284 6 19.333 5.10457 19.333 4C19.333 2.89543 20.2284 2 21.333 2H23.8663C24.3081 2 24.6663 2.35817 24.6663 2.8V5.2C24.6663 5.64183 24.3081 6 23.8663 6Z" stroke="#0327A3"/>
<path d="M4.13368 26H6.66699C7.77156 26 8.66699 25.1046 8.66699 24C8.66699 22.8954 7.77156 22 6.66699 22H4.13368C3.69185 22 3.33368 22.3582 3.33368 22.8V25.2C3.33368 25.6418 3.69185 26 4.13368 26Z" stroke="#0327A3"/>
</svg>
