<svg width="70" height="61" viewBox="0 0 70 61" fill="none" xmlns="http://www.w3.org/2000/svg">
<path d="M68.3909 48.3576H66.5347V13.4588C66.5272 11.6392 65.7983 9.89697 64.5081 8.61402C63.2178 7.33107 61.4714 6.61218 59.6519 6.61499H44.2338V4.42008C44.2325 4.1936 44.1644 3.97255 44.0379 3.78468C43.9114 3.59681 43.7323 3.45048 43.5229 3.36407L43.5346 1.32669C43.5353 1.17602 43.506 1.02672 43.4486 0.887423C43.3912 0.748127 43.3067 0.621599 43.2 0.515157C43.0934 0.408715 42.9667 0.324471 42.8273 0.267296C42.6879 0.210121 42.5385 0.18115 42.3879 0.182058H42.3806L39.2412 0.198212C38.9376 0.198596 38.6464 0.318363 38.4304 0.531647C38.2144 0.74493 38.091 1.03461 38.0868 1.33813V3.36121C37.8747 3.44492 37.6929 3.59086 37.5653 3.77986C37.4377 3.96886 37.3703 4.19205 37.372 4.42008V5.22577L36.4067 5.21948C35.9963 5.20872 35.5951 5.3426 35.2735 5.59771C34.9518 5.85283 34.73 6.21292 34.647 6.61499H33.1746C33.168 6.53666 33.141 6.46142 33.0964 6.3967L30.6062 1.39488C30.5116 1.20446 30.3658 1.04416 30.1852 0.931993C30.0046 0.819824 29.7963 0.760223 29.5837 0.759881C29.3711 0.75954 29.1626 0.818472 28.9816 0.93006C28.8007 1.04165 28.6544 1.20147 28.5592 1.39159L26.0684 6.39727C26.0237 6.46175 25.9968 6.53683 25.9903 6.61499H10.5177C8.69813 6.61218 6.95173 7.33107 5.66147 8.61402C4.3712 9.89697 3.64239 11.6392 3.63486 13.4588V48.3576H1.7786C1.47066 48.3671 1.17858 48.4964 0.964566 48.718C0.750554 48.9396 0.631523 49.236 0.632823 49.5441V53.9408C0.635815 55.7594 1.36026 57.5025 2.64714 58.7875C3.93403 60.0724 5.67818 60.7943 7.49677 60.7946H62.6728C64.4915 60.7943 66.2357 60.0723 67.5226 58.7872C68.8095 57.5021 69.5339 55.7588 69.5367 53.9401V49.5441C69.538 49.236 69.419 48.9396 69.205 48.718C68.991 48.4964 68.6989 48.3671 68.3909 48.3576ZM59.6519 8.90226C60.865 8.89876 62.03 9.37645 62.8915 10.2306C63.753 11.0848 64.2406 12.2457 64.2474 13.4588V48.3576H60.8165V13.788C60.8165 13.1563 60.3591 12.6191 59.7272 12.6191H44.2338V8.90226H59.6519ZM24.6491 31.2031H45.5204V41.125C45.5204 42.1158 44.653 42.9253 43.662 42.9253H26.5075C25.5166 42.9253 24.6491 42.1158 24.6491 41.125V31.2031ZM45.5204 28.9158H24.6491V21.3393H45.5204V28.9158ZM33.2062 14.9063H34.6869C34.7678 15.1254 34.9138 15.3143 35.1054 15.4478C35.297 15.5813 35.5248 15.6528 35.7583 15.6528C35.9918 15.6528 36.2196 15.5813 36.4112 15.4478C36.6028 15.3143 36.7488 15.1254 36.8297 14.9063H37.372V19.052H33.2005L33.2062 14.9063ZM41.9466 5.61432V19.052H39.6593V6.50735C39.6593 6.46689 39.6667 6.42587 39.667 6.38412C39.667 6.33866 39.6593 6.29406 39.6593 6.24989V5.61432H41.9466ZM37.372 8.90226V12.6191H36.9432V8.90226H37.372ZM34.6559 12.6191H33.2094L33.2145 8.90226H34.6559V12.6191ZM30.9132 19.052H28.2516L28.2373 8.04454H30.9285L30.9132 19.052ZM25.9643 19.052H21.6471C21.3438 19.052 21.0529 19.1725 20.8384 19.387C20.6239 19.6014 20.5034 19.8923 20.5034 20.1956C20.5034 20.4989 20.6239 20.7898 20.8384 21.0043C21.0529 21.2188 21.3438 21.3393 21.6471 21.3393H22.3619V41.125C22.3619 43.3771 24.2554 45.2126 26.5075 45.2126H43.662C45.9141 45.2126 47.8077 43.3771 47.8077 41.125V21.3393H48.5225C48.8258 21.3393 49.1167 21.2188 49.3311 21.0043C49.5456 20.7898 49.6661 20.4989 49.6661 20.1956C49.6661 19.8923 49.5456 19.6014 49.3311 19.387C49.1167 19.1725 48.8258 19.052 48.5225 19.052H44.2338V14.9063H58.5292V48.3576H43.4735C43.3141 48.3616 43.1572 48.3982 43.0125 48.4652C42.8679 48.5322 42.7385 48.6283 42.6325 48.7473L41.472 50.0174C41.0436 50.4831 40.5238 50.8553 39.945 51.1109C39.3662 51.3664 38.7409 51.4998 38.1082 51.5026H32.0613C31.4293 51.5017 30.8043 51.3703 30.2254 51.1166C29.6466 50.8628 29.1265 50.4922 28.6976 50.028L27.5371 48.7474C27.431 48.6284 27.3017 48.5323 27.157 48.4653C27.0124 48.3982 26.8555 48.3616 26.6961 48.3576H11.6403V14.9063H25.9593L25.9643 19.052ZM41.2175 2.49463L41.2299 3.32705H40.3741V2.47461L41.2175 2.49463ZM30.2256 5.75727H28.9397L29.583 4.46725L30.2256 5.75727ZM5.92213 13.4588C5.92897 12.2457 6.41658 11.0848 7.27805 10.2306C8.13952 9.37645 9.30454 8.89876 10.5177 8.90226H25.951L25.9562 12.6191H10.4423C9.81048 12.6191 9.35303 13.1563 9.35303 13.788V48.3576H5.92213V13.4588ZM67.2495 53.9401C67.2473 55.1524 66.7642 56.3143 65.9061 57.1706C65.048 58.027 63.8851 58.5077 62.6728 58.5073H7.49677C6.28447 58.5077 5.12159 58.027 4.26348 57.1706C3.40538 56.3143 2.92221 55.1524 2.92009 53.9401V50.6449H26.1949L27.0159 51.5571C27.6581 52.2562 28.4376 52.8154 29.3057 53.1996C30.1739 53.5838 31.112 53.7847 32.0613 53.7899H38.1082C39.0576 53.7847 39.9957 53.5838 40.8638 53.1996C41.7319 52.8154 42.5115 52.2562 43.1537 51.5571L43.9747 50.6449H67.2495V53.9401Z" fill="#000D46"/>
</svg>
