<svg width="66" height="61" viewBox="0 0 66 61" fill="none" xmlns="http://www.w3.org/2000/svg">
<path d="M31.8573 48.3371H33.8484C34.6027 48.3371 35.2131 47.7267 35.2131 46.9724C35.2131 46.2181 34.6027 45.6078 33.8484 45.6078H31.8573C31.103 45.6078 30.4927 46.2181 30.4927 46.9724C30.4927 47.7267 31.103 48.3371 31.8573 48.3371Z" fill="#000D46"/>
<path d="M65.5969 6.43752C65.5969 2.90857 62.7316 0.0379639 59.2106 0.0379639H6.46959C2.95529 0.0379639 0.0966797 2.90324 0.0966797 6.4242V46.4341C0.0966797 47.7241 0.482826 48.9559 1.19523 50.0047C1.27036 50.1159 1.36806 50.2084 1.44977 50.3144C1.61669 50.53 1.77445 50.7517 1.97044 50.9479C1.97269 50.9502 1.97552 50.9517 1.97777 50.954C2.27004 51.2463 2.59097 51.5096 2.93489 51.7412C3.06249 51.8271 3.20459 51.884 3.33744 51.96C3.56533 52.0909 3.78797 52.2299 4.03227 52.3323C4.11614 52.3673 4.20718 52.382 4.29248 52.4133C4.98197 52.6684 5.71778 52.8283 6.49491 52.8283H22.1127L20.3359 57.9205H16.7113C15.957 57.9205 15.3466 58.5309 15.3466 59.2852C15.3466 60.0395 15.957 60.6499 16.7113 60.6499H21.305H44.4018H48.9956C49.7499 60.6499 50.3603 60.0395 50.3603 59.2852C50.3603 58.5309 49.7499 57.9205 48.9956 57.9205H45.371L43.5941 52.8283H59.212C61.8699 52.8283 64.1506 51.1941 65.1117 48.8795C65.1259 48.8452 65.1311 48.8077 65.1448 48.7732C65.4311 48.0483 65.6009 47.2647 65.6009 46.4394V42.4827C65.6009 42.4756 65.597 42.4699 65.5969 42.4629V6.43752ZM2.83402 46.4394V43.8474H62.8675V46.4341C62.8675 47.407 62.4864 48.3252 61.7947 49.0182C61.1031 49.7099 60.1848 50.091 59.2106 50.091H6.48291C5.50872 50.091 4.59183 49.7099 3.9015 49.0182C3.73425 48.8513 3.58732 48.6699 3.45738 48.4793C3.06416 47.896 2.83402 47.1942 2.83402 46.4394ZM6.46959 2.76731H59.2106C61.227 2.76731 62.8675 4.41317 62.8675 6.43752V41.118H2.82602V6.4242C2.82602 4.40784 4.45989 2.76731 6.46959 2.76731ZM42.4801 57.9205H23.2268L25.0033 52.8283H40.7036L42.4801 57.9205Z" fill="#000D46"/>
<path d="M25.2982 21.3627C25.5461 21.5506 25.8366 21.6412 26.1244 21.6412C26.5362 21.6412 26.9427 21.456 27.2119 21.1041C27.6677 20.5044 27.5517 19.6475 26.9534 19.1904L20.9909 14.6486L26.952 10.1108C27.5517 9.65369 27.6677 8.79811 27.2119 8.1984C26.7548 7.59869 25.8979 7.48275 25.2995 7.93853L17.9124 13.5625C17.5726 13.821 17.374 14.2221 17.374 14.6486C17.374 15.0737 17.5726 15.4762 17.9111 15.7347L25.2982 21.3627Z" fill="#000D46"/>
<path d="M38.482 21.1028C38.7512 21.456 39.1576 21.6412 39.5694 21.6412C39.8573 21.6412 40.1478 21.5506 40.3944 21.3627L47.7828 15.7347C48.1226 15.4762 48.3212 15.0751 48.3212 14.6486C48.3212 14.2221 48.1226 13.821 47.7828 13.5625L40.3944 7.93853C39.7947 7.48275 38.9391 7.59869 38.482 8.1984C38.0262 8.79811 38.1421 9.65369 38.7418 10.1108L44.7043 14.6486L38.7418 19.1904C38.1421 19.6475 38.0262 20.5044 38.482 21.1028Z" fill="#000D46"/>
<path d="M30.6146 22.8388C30.7346 22.8721 30.8545 22.8867 30.9744 22.8867C31.5741 22.8867 32.1245 22.4883 32.2898 21.8806L36.0386 8.13656C36.2372 7.41025 35.8081 6.65995 35.0804 6.46138C34.3595 6.26281 33.6038 6.6906 33.4053 7.41958L29.6564 21.1636C29.4578 21.8899 29.887 22.6402 30.6146 22.8388Z" fill="#000D46"/>
<path d="M7.9052 31.0641H57.9436C58.6979 31.0641 59.3082 30.4538 59.3082 29.6995C59.3082 28.9452 58.6979 28.3348 57.9436 28.3348H7.9052C7.1509 28.3348 6.54053 28.9452 6.54053 29.6995C6.54053 30.4538 7.1509 31.0641 7.9052 31.0641Z" fill="#000D46"/>
<path d="M7.9052 37.3971H29.516C30.2703 37.3971 30.8807 36.7867 30.8807 36.0324C30.8807 35.2781 30.2703 34.6677 29.516 34.6677H7.9052C7.1509 34.6677 6.54053 35.2781 6.54053 36.0324C6.54053 36.7867 7.1509 37.3971 7.9052 37.3971Z" fill="#000D46"/>
</svg>
