<svg width="66" height="61" viewBox="0 0 66 61" fill="none" xmlns="http://www.w3.org/2000/svg">
<path d="M33.783 45.7527H31.7919C31.0376 45.7527 30.4272 46.3637 30.4272 47.1173C30.4272 47.871 31.0376 48.482 31.7919 48.482H33.783C34.5373 48.482 35.1476 47.871 35.1476 47.1173C35.1476 46.3637 34.5373 45.7527 33.783 45.7527Z" fill="#000D46"/>
<path d="M6.41748 52.9651H22.0497L20.2703 58.0646H16.6458C15.8915 58.0646 15.2812 58.6756 15.2812 59.4293C15.2812 60.1829 15.8915 60.7939 16.6458 60.7939H21.2341C21.236 60.7939 21.2377 60.7946 21.2396 60.7946H44.3351C44.337 60.7946 44.3387 60.7939 44.3406 60.7939H48.9302C49.6845 60.7939 50.2948 60.1829 50.2948 59.4293C50.2948 58.6756 49.6845 58.0646 48.9302 58.0646H45.3044L43.525 52.9651H59.1452C60.8484 52.9651 62.4503 52.2994 63.659 51.0913C64.8664 49.8839 65.5314 48.2813 65.5314 46.5788V42.6466C65.5315 42.6396 65.5354 42.6338 65.5354 42.6268C65.5354 42.6198 65.5315 42.6139 65.5314 42.6069V6.58226C65.5314 3.05331 62.6662 0.182037 59.1452 0.182037H6.40416C2.88986 0.182037 0.03125 3.04665 0.03125 6.56827V46.5788C0.03125 48.2807 0.69626 49.8832 1.90501 51.0913C3.11375 52.2994 4.71564 52.9651 6.41748 52.9651ZM23.1616 58.0646L24.9378 52.9724H40.6369L42.4131 58.0646H23.1616ZM61.7293 49.1616C61.0363 49.8539 60.1194 50.2357 59.1452 50.2357H6.41748C5.44462 50.2357 4.52773 49.8539 3.83474 49.1616C3.14174 48.4686 2.76059 47.5517 2.76059 46.5788V43.9914H62.8021V46.5788C62.8021 47.5524 62.421 48.4699 61.7293 49.1616ZM6.40416 2.91138H59.1452C61.1616 2.91138 62.8021 4.55791 62.8021 6.58226V41.2621H2.76059V6.56827C2.76059 4.55192 4.39446 2.91138 6.40416 2.91138Z" fill="#000D46"/>
<path d="M7.95256 11.6805H20.3452C21.0995 11.6805 21.7099 11.0695 21.7099 10.3159C21.7099 9.56222 21.0995 8.95119 20.3452 8.95119H7.95256C7.19826 8.95119 6.58789 9.56222 6.58789 10.3159C6.58789 11.0695 7.19826 11.6805 7.95256 11.6805Z" fill="#000D46"/>
<path d="M7.95256 17.8056H20.3452C21.0995 17.8056 21.7099 17.1945 21.7099 16.4409C21.7099 15.6873 21.0995 15.0762 20.3452 15.0762H7.95256C7.19826 15.0762 6.58789 15.6873 6.58789 16.4409C6.58789 17.1945 7.19826 17.8056 7.95256 17.8056Z" fill="#000D46"/>
<path d="M7.95256 24.1985H20.3452C21.0995 24.1985 21.7099 23.5874 21.7099 22.8338C21.7099 22.0802 21.0995 21.4691 20.3452 21.4691H7.95256C7.19826 21.4691 6.58789 22.0802 6.58789 22.8338C6.58789 23.5874 7.19826 24.1985 7.95256 24.1985Z" fill="#000D46"/>
<path d="M7.95256 30.5913H20.3452C21.0995 30.5913 21.7099 29.9803 21.7099 29.2267C21.7099 28.473 21.0995 27.862 20.3452 27.862H7.95256C7.19826 27.862 6.58789 28.473 6.58789 29.2267C6.58789 29.9803 7.19826 30.5913 7.95256 30.5913Z" fill="#000D46"/>
<path d="M7.95256 36.9849H20.3452C21.0995 36.9849 21.7099 36.3739 21.7099 35.6202C21.7099 34.8666 21.0995 34.2556 20.3452 34.2556H7.95256C7.19826 34.2556 6.58789 34.8666 6.58789 35.6202C6.58789 36.3739 7.19826 36.9849 7.95256 36.9849Z" fill="#000D46"/>
<path d="M32.7275 29.9943C31.5147 29.9943 30.5272 29.0074 30.5272 27.794C30.5272 27.0404 29.9168 26.4294 29.1625 26.4294C28.4082 26.4294 27.7979 27.0404 27.7979 27.794C27.7979 30.0355 29.3108 31.9111 31.3628 32.5074V33.1947C31.3628 33.9484 31.9732 34.5594 32.7275 34.5594C33.4818 34.5594 34.0921 33.9484 34.0921 33.1947V32.5075C36.1442 31.9112 37.6571 30.0355 37.6571 27.794C37.6571 25.076 35.4461 22.8644 32.7275 22.8644C31.5147 22.8644 30.5272 21.8776 30.5272 20.6642C30.5272 19.4508 31.5147 18.4632 32.7275 18.4632C33.9402 18.4632 34.9277 19.4508 34.9277 20.6642C34.9277 21.4178 35.5381 22.0288 36.2924 22.0288C37.0467 22.0288 37.6571 21.4178 37.6571 20.6642C37.6571 18.4221 36.1442 16.5463 34.0921 15.95V15.2628C34.0921 14.5092 33.4818 13.8981 32.7275 13.8981C31.9732 13.8981 31.3628 14.5092 31.3628 15.2628V15.9501C29.3108 16.5464 27.7979 18.4222 27.7979 20.6642C27.7979 23.3822 30.0088 25.5938 32.7275 25.5938C33.9402 25.5938 34.9277 26.5806 34.9277 27.794C34.9277 29.0074 33.9402 29.9943 32.7275 29.9943Z" fill="#000D46"/>
<path d="M48.9394 27.0103C48.9408 27.0103 48.9408 27.0103 48.9421 27.0103C49.6964 27.009 50.3054 26.3966 50.3041 25.643L50.3019 24.6631L53.6945 28.0565C53.961 28.323 54.3102 28.4563 54.6593 28.4563C55.0085 28.4563 55.3577 28.323 55.6242 28.0565C56.1573 27.5241 56.1573 26.6598 55.6242 26.1267L52.2339 22.7357H53.2147C53.969 22.7357 54.5794 22.1247 54.5794 21.3711C54.5794 20.6174 53.969 20.0064 53.2147 20.0064H48.9594C48.7719 20.003 48.5854 20.0364 48.4096 20.1099C48.3147 20.1491 48.2374 20.2204 48.1532 20.2802C48.0933 20.3231 48.0245 20.3476 47.9706 20.4015C47.9701 20.402 47.97 20.4026 47.9695 20.4031C47.9678 20.4047 47.9655 20.4052 47.9639 20.4069C47.708 20.6634 47.5641 21.0119 47.5654 21.3737L47.5748 25.6483C47.5761 26.4013 48.1865 27.0103 48.9394 27.0103Z" fill="#000D46"/>
</svg>
