<svg width="64" height="66" viewBox="0 0 64 66" fill="none" xmlns="http://www.w3.org/2000/svg">
<path d="M51.235 7.28249H23.2086L19.0813 1.05751C18.8294 0.676366 18.4016 0.447144 17.9445 0.447144H1.39787C0.643573 0.447144 0.0332031 1.05751 0.0332031 1.81181V8.64716V47.8335C0.0332031 47.8553 0.0446143 47.8735 0.0456138 47.895C0.0531102 48.042 0.0780147 48.1868 0.132238 48.3245C0.15023 48.3709 0.1773 48.4097 0.200039 48.4534C0.226109 48.5032 0.246016 48.5555 0.278417 48.6024C0.304571 48.64 0.339055 48.669 0.368457 48.7034C0.406772 48.7487 0.440922 48.7938 0.484817 48.8338C0.580104 48.9204 0.686719 48.9908 0.80133 49.047C0.857053 49.0745 0.914109 49.0929 0.97383 49.1126C1.07678 49.1468 1.18306 49.1682 1.29309 49.177C1.32949 49.1799 1.36073 49.1981 1.39787 49.1981H24.9464V55.3083C23.0613 55.8041 21.5856 57.2807 21.0917 59.1666H9.61655C8.86225 59.1666 8.25188 59.777 8.25188 60.5313C8.25188 61.2856 8.86225 61.896 9.61655 61.896H21.0917C21.7009 64.2223 23.8014 65.9513 26.3164 65.9513C28.8315 65.9513 30.932 64.2223 31.5412 61.896H43.0177C43.772 61.896 44.3823 61.2856 44.3823 60.5313C44.3823 59.777 43.772 59.1666 43.0177 59.1666H31.5412C31.0463 57.2771 29.5661 55.7979 27.6758 55.305V49.1981H51.235C51.3024 49.1981 51.3602 49.1692 51.425 49.1598C51.5103 49.1472 51.5953 49.1373 51.6753 49.1094C51.7603 49.08 51.8342 49.0386 51.9106 48.9938C51.9669 48.9609 52.0199 48.9264 52.0709 48.8858C52.1416 48.8296 52.2058 48.7728 52.2641 48.7039C52.3063 48.6542 52.3382 48.5978 52.3732 48.542C52.4207 48.466 52.4716 48.3954 52.5036 48.3102C52.5042 48.3084 52.5057 48.3071 52.5064 48.3052L63.617 18.6903C63.7743 18.2705 63.7156 17.8014 63.4611 17.4336C63.2052 17.0657 62.7867 16.8458 62.339 16.8458H52.5997V8.64716C52.5997 7.89286 51.9893 7.28249 51.235 7.28249ZM29.0071 60.5313C29.0071 62.0146 27.7997 63.222 26.3164 63.222C24.8332 63.222 23.6257 62.0146 23.6257 60.5313C23.6257 59.0538 24.8243 57.8516 26.2997 57.8423C26.3038 57.8423 26.307 57.8446 26.3111 57.8446C26.3164 57.8446 26.3208 57.8417 26.3261 57.8416C27.8047 57.8469 29.0071 59.0514 29.0071 60.5313ZM2.76254 3.17649H17.2115L21.3375 9.40146C21.5907 9.78261 22.0185 10.0118 22.4756 10.0118H49.8703V16.8458H12.5098C11.9408 16.8458 11.4317 17.199 11.2318 17.7308L2.76254 40.3079V8.64716V3.17649ZM50.2821 46.4608H3.37025L13.456 19.5752H51.2284C51.2308 19.5752 51.2327 19.5765 51.235 19.5765C51.2373 19.5765 51.2393 19.5752 51.2416 19.5752H60.3692L50.2821 46.4608Z" fill="#000D46"/>
<path d="M47.4595 34.3189H33.9794C33.2251 34.3189 32.6147 34.9293 32.6147 35.6836C32.6147 36.4379 33.2251 37.0483 33.9794 37.0483H47.4595C48.2138 37.0483 48.8242 36.4379 48.8242 35.6836C48.8242 34.9293 48.2138 34.3189 47.4595 34.3189Z" fill="#000D46"/>
<path d="M40.7188 39.1872H33.9794C33.2251 39.1872 32.6147 39.7976 32.6147 40.5519C32.6147 41.3062 33.2251 41.9165 33.9794 41.9165H40.7188C41.4731 41.9165 42.0835 41.3062 42.0835 40.5519C42.0835 39.7976 41.4731 39.1872 40.7188 39.1872Z" fill="#000D46"/>
</svg>
