<svg width="28" height="28" viewBox="0 0 28 28" fill="none" xmlns="http://www.w3.org/2000/svg">
<path d="M2.01983 24.1106C1.94284 24.3758 2.0954 24.6532 2.36059 24.7302C2.62579 24.8072 2.90318 24.6546 2.98017 24.3894L2.01983 24.1106ZM12.7486 5.12139L12.2843 5.30709L12.7486 5.12139ZM12.2514 3.87861L12.7157 3.69291L12.2514 3.87861ZM23.3289 23.6974L23.8062 23.8465L23.3289 23.6974ZM3.5 3.75H11.323V2.75H3.5V3.75ZM11.7872 4.0643L12.2843 5.30709L13.2128 4.9357L12.7157 3.69291L11.7872 4.0643ZM13.677 6.25H22V5.25H13.677V6.25ZM22.5 6.75V8.75H23.5V6.75H22.5ZM23.8062 23.8465L27.8687 10.8465L26.9142 10.5483L22.8517 23.5483L23.8062 23.8465ZM25.9597 8.25H8.12645V9.25H25.9597V8.25ZM1.5 4.75V23.75H2.5V4.75H1.5ZM3 25.25H21.8972V24.25H3V25.25ZM6.20576 9.69238L2.01983 24.1106L2.98017 24.3894L7.16611 9.97119L6.20576 9.69238ZM1.5 23.75C1.5 24.5784 2.17157 25.25 3 25.25V24.25C2.72386 24.25 2.5 24.0261 2.5 23.75H1.5ZM8.12645 8.25C7.23665 8.25 6.45385 8.83786 6.20576 9.69238L7.16611 9.97119C7.29015 9.54393 7.68155 9.25 8.12645 9.25V8.25ZM27.8687 10.8465C28.2711 9.55869 27.309 8.25 25.9597 8.25V9.25C26.6344 9.25 27.1154 9.90434 26.9142 10.5483L27.8687 10.8465ZM22 6.25C22.2761 6.25 22.5 6.47386 22.5 6.75H23.5C23.5 5.92157 22.8284 5.25 22 5.25V6.25ZM12.2843 5.30709C12.5121 5.87657 13.0637 6.25 13.677 6.25V5.25C13.4726 5.25 13.2887 5.12552 13.2128 4.9357L12.2843 5.30709ZM11.323 3.75C11.5274 3.75 11.7113 3.87448 11.7872 4.0643L12.7157 3.69291C12.4879 3.12343 11.9363 2.75 11.323 2.75V3.75ZM22.8517 23.5483C22.7212 23.9657 22.3346 24.25 21.8972 24.25V25.25C22.772 25.25 23.5453 24.6815 23.8062 23.8465L22.8517 23.5483ZM3.5 2.75C2.39543 2.75 1.5 3.64543 1.5 4.75H2.5C2.5 4.19772 2.94772 3.75 3.5 3.75V2.75Z" fill="#0327A3"/>
</svg>
