<svg width="67" height="62" viewBox="0 0 67 62" fill="none" xmlns="http://www.w3.org/2000/svg">
<path d="M34.4848 29.8351H32.4931C31.7395 29.8351 31.1284 30.4461 31.1284 31.1998C31.1284 31.9534 31.7395 32.5644 32.4931 32.5644H34.4848C35.2384 32.5644 35.8495 31.9534 35.8495 31.1998C35.8495 30.4461 35.2384 29.8351 34.4848 29.8351Z" fill="#000D46"/>
<path d="M66.2372 7.29317C66.2372 3.76422 63.3726 0.892944 59.851 0.892944H7.10923C3.59494 0.892944 0.736328 3.75755 0.736328 7.27918V47.2897C0.736328 48.582 1.12397 49.8145 1.83754 50.8631C1.84945 50.8807 1.86578 50.8947 1.87786 50.9121C2.0955 51.2253 2.33447 51.5266 2.61009 51.8022C2.61242 51.8046 2.61533 51.8062 2.61775 51.8086C2.91011 52.1011 3.2312 52.3645 3.57537 52.5963C3.70089 52.6806 3.84049 52.7364 3.97101 52.8114C4.20081 52.9438 4.42562 53.0839 4.67217 53.1873C4.76429 53.2258 4.86416 53.2423 4.95803 53.2763C5.64036 53.5256 6.36701 53.6833 7.13455 53.6833H23.3094V58.7755H17.3503C16.5966 58.7755 15.9856 59.3865 15.9856 60.1402C15.9856 60.8938 16.5966 61.5048 17.3503 61.5048H24.6707C24.6719 61.5048 24.6729 61.5055 24.674 61.5055H42.3115C42.3126 61.5055 42.3136 61.5048 42.3148 61.5048H49.6353C50.3889 61.5048 50.9999 60.8938 50.9999 60.1402C50.9999 59.3865 50.3889 58.7755 49.6353 58.7755H43.6761V53.6833H59.851C62.5088 53.6833 64.7893 52.0499 65.7508 49.7358C65.7708 49.6881 65.7782 49.6359 65.7969 49.5878C65.9276 49.2505 66.042 48.9054 66.1142 48.5434C66.1163 48.5324 66.1155 48.5208 66.1176 48.5099C66.194 48.1154 66.2405 47.7102 66.2405 47.2938V43.3377C66.2405 43.3318 66.2373 43.327 66.2372 43.3212V7.29317ZM4.26453 49.5378C4.21081 49.4699 4.14767 49.4079 4.0992 49.3368C3.70497 48.753 3.47433 48.0498 3.47433 47.2938V44.7023H63.5079V47.2897C63.5079 48.2626 63.126 49.1795 62.4337 49.8725C61.7407 50.5648 60.8238 50.9466 59.851 50.9466H7.12256C6.15095 50.9466 5.23531 50.5655 4.54273 49.8749C4.43986 49.7716 4.35457 49.6527 4.26453 49.5378ZM3.46567 41.973V30.6258L13.2989 20.7933L19.3316 26.8259C19.0115 27.4973 18.8175 28.2393 18.8175 29.0313C18.8175 31.8772 21.1331 34.1921 23.979 34.1921C26.825 34.1921 29.1405 31.8772 29.1405 29.0313C29.1405 28.2193 28.9351 27.4606 28.5996 26.7765L34.0392 21.3483C34.7915 21.7772 35.6493 22.042 36.5756 22.042C37.4999 22.042 38.3558 21.7781 39.1069 21.3509L45.1853 27.4293C44.745 28.1889 44.4738 29.0587 44.4738 29.9981C44.4738 32.8441 46.7893 35.1596 49.6353 35.1596C52.4812 35.1596 54.7967 32.8441 54.7967 29.9981C54.7967 29.0873 54.5393 28.2433 54.1234 27.4997L63.5079 18.1152V41.973H3.46567ZM26.4112 29.0313C26.4112 30.372 25.3204 31.4628 23.979 31.4628C22.6377 31.4628 21.5469 30.372 21.5469 29.0313C21.5469 27.6899 22.6377 26.5991 23.979 26.5991C25.3204 26.5991 26.4112 27.6899 26.4112 29.0313ZM34.1434 16.8812C34.1434 15.5398 35.2342 14.449 36.5756 14.449C37.9163 14.449 39.0071 15.5398 39.0071 16.8812C39.0071 17.5444 38.7388 18.1454 38.3067 18.5845C38.3001 18.5909 38.2913 18.5925 38.2848 18.599C38.2793 18.6045 38.2778 18.612 38.2724 18.6175C37.8338 19.0461 37.2359 19.3127 36.5756 19.3127C35.9235 19.3127 35.3335 19.0516 34.8964 18.6326C34.8713 18.6053 34.847 18.5802 34.8197 18.5551C34.4031 18.1185 34.1434 17.5308 34.1434 16.8812ZM52.0674 29.9981C52.0674 31.3395 50.9766 32.4303 49.6353 32.4303C48.2939 32.4303 47.2031 31.3395 47.2031 29.9981C47.2031 28.6568 48.2939 27.566 49.6353 27.566C50.9766 27.566 52.0674 28.6568 52.0674 29.9981ZM7.10923 3.62229H59.851C61.8673 3.62229 63.5079 5.26882 63.5079 7.29317V14.2558L52.2114 25.5522C51.4501 25.1092 50.5776 24.8367 49.6353 24.8367C48.7214 24.8367 47.8749 25.0956 47.1295 25.514L41.0393 19.4238C41.4704 18.6701 41.7364 17.81 41.7364 16.8812C41.7364 14.0352 39.4215 11.7197 36.5756 11.7197C33.7296 11.7197 31.4141 14.0352 31.4141 16.8812C31.4141 17.8078 31.6792 18.6659 32.1085 19.4183L26.7982 24.7174C25.9865 24.1851 25.02 23.8698 23.979 23.8698C22.9176 23.8698 21.931 24.1932 21.1098 24.7447L14.2638 17.8987C13.7307 17.3656 12.8671 17.3656 12.334 17.8987L3.46567 26.7665V7.27918C3.46567 5.26282 5.10021 3.62229 7.10923 3.62229ZM40.9468 58.7755H26.0387V53.6833H40.9468V58.7755Z" fill="#000D46"/>
<path d="M8.65764 10.1546H17.5313C18.285 10.1546 18.896 9.5436 18.896 8.78996C18.896 8.03633 18.285 7.42529 17.5313 7.42529H8.65764C7.90401 7.42529 7.29297 8.03633 7.29297 8.78996C7.29297 9.5436 7.90401 10.1546 8.65764 10.1546Z" fill="#000D46"/>
<path d="M8.65764 15.1016H21.0503C21.8039 15.1016 22.415 14.4906 22.415 13.7369C22.415 12.9833 21.8039 12.3723 21.0503 12.3723H8.65764C7.90401 12.3723 7.29297 12.9833 7.29297 13.7369C7.29297 14.4906 7.90401 15.1016 8.65764 15.1016Z" fill="#000D46"/>
</svg>
