<svg width="55" height="66" viewBox="0 0 55 66" fill="none" xmlns="http://www.w3.org/2000/svg">
<path d="M49.5997 0.0218506H21.6643C20.2626 0.0259402 18.9199 0.586618 17.9315 1.58057C16.9431 2.57453 16.3899 3.92037 16.3937 5.32211V20.5705C16.118 20.2415 15.8251 20.0132 15.4176 20.0132H8.33482C8.19441 20.014 8.05562 20.0434 7.9269 20.0995C7.79818 20.1556 7.68222 20.2372 7.58605 20.3396C7.48799 20.4442 7.41171 20.5674 7.36163 20.7018C7.31155 20.8362 7.28867 20.9792 7.29432 21.1225V42.1327L1.1372 48.2233C0.980614 48.3719 0.872328 48.5641 0.826401 48.775C0.780474 48.9859 0.79903 49.2058 0.879658 49.4061C0.960657 49.6049 1.09991 49.7746 1.27911 49.8928C1.45832 50.011 1.6691 50.0723 1.88376 50.0685H16.3937V59.796C16.3899 61.1978 16.9431 62.5436 17.9315 63.5376C18.9199 64.5315 20.2626 65.0922 21.6643 65.0963H49.5997C50.2932 65.0941 50.9795 64.9552 51.6193 64.6875C52.259 64.4199 52.8398 64.0287 53.3283 63.5365C53.8167 63.0442 54.2034 62.4605 54.4661 61.8187C54.7288 61.1768 54.8624 60.4895 54.8593 59.796V5.32211C54.8624 4.62862 54.7288 3.94131 54.4661 3.29949C54.2034 2.65768 53.8167 2.07395 53.3283 1.58169C52.8398 1.08942 52.259 0.69828 51.6193 0.43063C50.9795 0.16298 50.2932 0.0240724 49.5997 0.0218506ZM21.6643 2.22776H49.5997C50.0036 2.22967 50.4032 2.31131 50.7755 2.46799C51.1478 2.62468 51.4854 2.85332 51.7691 3.14081C52.0529 3.4283 52.277 3.76898 52.4288 4.1433C52.5805 4.51762 52.6568 4.91822 52.6534 5.32211V10.4999H18.5996V5.32211C18.5974 4.91763 18.675 4.51669 18.8279 4.14221C18.9807 3.76772 19.2059 3.42705 19.4906 3.13966C19.7752 2.85228 20.1137 2.62382 20.4867 2.46734C20.8597 2.31087 21.2598 2.22946 21.6643 2.22776ZM14.3257 22.2189V45.2431H9.50023V40.4176H9.77004C10.0626 40.4176 10.3431 40.3014 10.5499 40.0946C10.7568 39.8877 10.873 39.6072 10.873 39.3147C10.873 39.0222 10.7568 38.7416 10.5499 38.5348C10.3431 38.3279 10.0626 38.2117 9.77004 38.2117H9.50023V37.3845H11.2811C11.5736 37.3845 11.8542 37.2683 12.061 37.0615C12.2678 36.8546 12.384 36.5741 12.384 36.2816C12.384 35.989 12.2678 35.7085 12.061 35.5016C11.8542 35.2948 11.5736 35.1786 11.2811 35.1786H9.50023V34.3514H9.77004C10.0626 34.3514 10.3431 34.2352 10.5499 34.0283C10.7568 33.8215 10.873 33.5409 10.873 33.2484C10.873 32.9559 10.7568 32.6754 10.5499 32.4685C10.3431 32.2617 10.0626 32.1455 9.77004 32.1455H9.50023V31.3182H11.2811C11.5736 31.3182 11.8542 31.202 12.061 30.9952C12.2678 30.7884 12.384 30.5078 12.384 30.2153C12.384 29.9228 12.2678 29.6422 12.061 29.4354C11.8542 29.2285 11.5736 29.1123 11.2811 29.1123H9.50023V28.2851H9.77597V28.315C10.0665 28.3018 10.3413 28.1793 10.5453 27.972C10.7493 27.7648 10.8675 27.488 10.876 27.1973C10.876 26.9029 10.7598 26.6204 10.5528 26.4111C10.3458 26.2018 10.0646 26.0825 9.77018 26.0792H9.50023V25.3899H11.281C11.5735 25.3899 11.854 25.2737 12.0609 25.0668C12.2677 24.86 12.3839 24.5794 12.3839 24.2869C12.3839 23.9944 12.2677 23.7138 12.0609 23.507C11.854 23.3001 11.5735 23.1839 11.281 23.1839H9.50023V22.2189H14.3257ZM7.29432 45.2431V46.3278C7.29432 46.9369 7.72585 47.4489 8.33495 47.4489H15.4176C15.7131 47.4452 15.9954 47.3257 16.2037 47.116C16.412 46.9064 16.5298 46.6234 16.5316 46.3278V36.008L33.4895 19.0776V23.5976H30.9436C30.6511 23.5976 30.3706 23.7138 30.1637 23.9206C29.9569 24.1274 29.8407 24.408 29.8407 24.7005C29.8407 24.993 29.9569 25.2736 30.1637 25.4804C30.3706 25.6873 30.6511 25.8035 30.9436 25.8035H33.4895V27.7336H32.6685C32.376 27.7336 32.0955 27.8498 31.8886 28.0567C31.6818 28.2635 31.5656 28.5441 31.5656 28.8366C31.5656 29.1291 31.6818 29.4097 31.8886 29.6165C32.0955 29.8233 32.376 29.9396 32.6685 29.9396H33.4895V32.1455H30.9436C30.6511 32.1455 30.3706 32.2617 30.1637 32.4685C29.9569 32.6754 29.8407 32.9559 29.8407 33.2484C29.8407 33.5409 29.9569 33.8215 30.1637 34.0283C30.3706 34.2352 30.6511 34.3514 30.9436 34.3514H33.4895V36.6952H32.6685C32.376 36.6952 32.0955 36.8114 31.8886 37.0182C31.6818 37.2251 31.5656 37.5056 31.5656 37.7981C31.5656 38.0906 31.6818 38.3712 31.8886 38.578C32.0955 38.7849 32.376 38.9011 32.6685 38.9011H33.4895V41.2449H30.9436C30.6511 41.2449 30.3706 41.3611 30.1637 41.5679C29.9569 41.7748 29.8407 42.0553 29.8407 42.3478C29.8407 42.6403 29.9569 42.9209 30.1637 43.1277C30.3706 43.3346 30.6511 43.4508 30.9436 43.4508H33.4895V45.2431H32.6685C32.376 45.2431 32.0955 45.3593 31.8886 45.5661C31.6818 45.773 31.5656 46.0535 31.5656 46.346C31.5656 46.6386 31.6818 46.9191 31.8886 47.1259C32.0955 47.3328 32.376 47.449 32.6685 47.449H33.4895V47.8626H4.55733L7.29432 45.2431ZM21.8671 21.3916H25.5804L25.5926 23.8806L21.8547 27.5984L21.8671 21.3916ZM22.6038 19.1857L23.7222 17.0862L24.841 19.1857H22.6038ZM34.6518 50.0685C34.7914 50.0718 34.9302 50.0465 35.0596 49.994C35.1891 49.9415 35.3063 49.863 35.4042 49.7633C35.502 49.6636 35.5783 49.5449 35.6284 49.4146C35.6786 49.2842 35.7014 49.1449 35.6954 49.0054V16.4254C35.7022 16.2098 35.6438 15.9972 35.5277 15.8154C35.4116 15.6336 35.2433 15.4911 35.0448 15.4066C34.8464 15.3221 34.627 15.2995 34.4155 15.3417C34.204 15.384 34.0102 15.4892 33.8594 15.6434L27.7808 21.695L27.7775 20.2771C27.7771 20.0982 27.7333 19.922 27.6498 19.7638L24.695 14.2157C24.6009 14.0393 24.4606 13.8919 24.2893 13.7891C24.1179 13.6863 23.9218 13.632 23.7219 13.632C23.522 13.632 23.3259 13.6863 23.1545 13.7891C22.9831 13.8919 22.8429 14.0393 22.7488 14.2157L19.793 19.7638C19.7084 19.9229 19.664 20.1002 19.6636 20.2804L19.656 29.7913L18.5996 30.8529V12.7059H52.6534V50.3443H18.5996V50.0685H34.6518ZM49.5995 62.8904H21.6643C21.2598 62.8887 20.8597 62.8073 20.4867 62.6508C20.1137 62.4943 19.7752 62.2659 19.4906 61.9785C19.2059 61.6911 18.9807 61.3504 18.8279 60.9759C18.675 60.6015 18.5974 60.2005 18.5996 59.796V52.5502H52.6534V59.796C52.6568 60.1999 52.5805 60.6005 52.4288 60.9749C52.277 61.3492 52.0529 61.6899 51.7691 61.9773C51.4854 62.2648 51.1478 62.4935 50.7755 62.6502C50.4032 62.8068 50.0036 62.8885 49.5997 62.8904H49.5995Z" fill="#000D46"/>
<path d="M31.0917 7.19148H40.1707C40.4632 7.19148 40.7438 7.07527 40.9506 6.86843C41.1575 6.66159 41.2737 6.38104 41.2737 6.08852C41.2737 5.796 41.1575 5.51546 40.9506 5.30861C40.7438 5.10177 40.4632 4.98557 40.1707 4.98557H31.0917C30.7992 4.98557 30.5187 5.10177 30.3118 5.30861C30.105 5.51546 29.9888 5.796 29.9888 6.08852C29.9888 6.38104 30.105 6.66159 30.3118 6.86843C30.5187 7.07527 30.7992 7.19148 31.0917 7.19148Z" fill="#000D46"/>
<path d="M38.4527 56.6865H32.9379C32.6454 56.6865 32.3649 56.8027 32.158 57.0096C31.9512 57.2164 31.835 57.497 31.835 57.7895C31.835 58.082 31.9512 58.3625 32.158 58.5694C32.3649 58.7762 32.6454 58.8924 32.9379 58.8924H38.4527C38.7452 58.8924 39.0258 58.7762 39.2326 58.5694C39.4395 58.3625 39.5557 58.082 39.5557 57.7895C39.5557 57.497 39.4395 57.2164 39.2326 57.0096C39.0258 56.8027 38.7452 56.6865 38.4527 56.6865Z" fill="#000D46"/>
<path d="M27.8156 31.8618C27.6119 31.7781 27.388 31.7561 27.1719 31.7983C26.9557 31.8406 26.7566 31.9453 26.5993 32.0995L17.0622 41.6019C16.9073 41.7525 16.8012 41.9462 16.7578 42.1579C16.7144 42.3696 16.7357 42.5895 16.8189 42.7889C16.902 42.9884 17.0433 43.1582 17.2243 43.2763C17.4052 43.3944 17.6175 43.4554 17.8336 43.4513H27.3634C27.9725 43.4513 28.5252 42.992 28.5252 42.3829V32.8805C28.5193 32.66 28.4489 32.4461 28.3228 32.265C28.1967 32.084 28.0204 31.9439 27.8156 31.8618ZM26.3193 41.2453H20.5019L26.3193 35.5375V41.2453Z" fill="#000D46"/>
<path d="M10.189 43.0377C10.189 43.3302 10.3052 43.6107 10.512 43.8176C10.7189 44.0244 10.9994 44.1406 11.2919 44.1406H12.598C12.8905 44.1406 13.171 44.0244 13.3779 43.8176C13.5847 43.6107 13.7009 43.3302 13.7009 43.0377C13.7009 42.7451 13.5847 42.4646 13.3779 42.2578C13.171 42.0509 12.8905 41.9347 12.598 41.9347H11.2919C10.9994 41.9347 10.7189 42.0509 10.512 42.2578C10.3052 42.4646 10.189 42.7451 10.189 43.0377Z" fill="#000D46"/>
</svg>
